<svg width="83" height="31" viewBox="0 0 83 31" fill="black" xmlns="http://www.w3.org/2000/svg">
<path d="M51.2617 0.429688V29.8732H55.4343L63.0276 19.882L70.6165 29.8732H74.334V0.429688H67.7397V14.677L63.0276 8.25574L58.0312 14.677V4.58057L51.2617 0.429688Z" />
<path d="M77.626 29.6299V24.289H83.0055V29.6299H77.626ZM77.626 22.9309V10.9766L83.0055 14.752V22.9309H77.626Z" />
<path d="M36.0735 30.3018H29.3584V22.2439V19.5581V11.4995V8.81385V0.755859H49.5036V8.81385H36.0735V11.4995H48.1607V19.5581H36.0735V22.2439H49.5036V30.3018H36.0735Z" />
<path d="M8.5979 0L16.001 9.6051L23.1943 0.746338H29.5334V4.40771L9.22388 30.3019H0L11.406 15.4281L3.91895 5.63745L8.5979 0Z" />
</svg>
