<svg width="34" height="15" viewBox="0 0 34 15" fill="none" xmlns="http://www.w3.org/2000/svg" fill="black">
<path d="M33.1019 8.06094H1.39375C0.95193 8.06094 0.59375 7.70277 0.59375 7.26094C0.59375 6.81911 0.95193 6.46094 1.39375 6.46094H33.1019C33.5437 6.46094 33.9019 6.81911 33.9019 7.26094C33.9019 7.70277 33.5437 8.06094 33.1019 8.06094Z"/>
<path d="M26.6398 14.5221C26.4351 14.5221 26.2304 14.444 26.0742 14.2878C25.7617 13.9754 25.7617 13.4688 26.0742 13.1564L31.9695 7.26105L26.0742 1.36569C25.7617 1.05327 25.7617 0.546725 26.0742 0.234315C26.3866 -0.078105 26.8931 -0.078105 27.2055 0.234315L33.6666 6.69536C33.8166 6.8454 33.9009 7.04889 33.9009 7.26105C33.9009 7.47322 33.8166 7.67671 33.6666 7.82673L27.2055 14.2878C27.0493 14.444 26.8446 14.5221 26.6398 14.5221Z"/>
</svg>
