<svg width="21" height="23" viewBox="0 0 21 23" fill="white" xmlns="http://www.w3.org/2000/svg">
<path d="M0.201172 20.7138C0.201172 21.8968 1.16099 22.8567 2.34403 22.8567H18.0583C19.2414 22.8567 20.2012 21.8968 20.2012 20.7138V8.57094H0.201172V20.7138ZM3.05832 12.1424C3.05832 11.7495 3.37974 11.4281 3.7726 11.4281H8.05831C8.45117 11.4281 8.7726 11.7495 8.7726 12.1424V16.4281C8.7726 16.8209 8.45117 17.1424 8.05831 17.1424H3.7726C3.37974 17.1424 3.05832 16.8209 3.05832 16.4281V12.1424ZM18.0583 2.85665H15.9155V0.713797C15.9155 0.32094 15.594 -0.000488281 15.2012 -0.000488281H13.7726C13.3797 -0.000488281 13.0583 0.32094 13.0583 0.713797V2.85665H7.34403V0.713797C7.34403 0.32094 7.0226 -0.000488281 6.62974 -0.000488281H5.20117C4.80831 -0.000488281 4.48689 0.32094 4.48689 0.713797V2.85665H2.34403C1.16099 2.85665 0.201172 3.81648 0.201172 4.99951V7.14237H20.2012V4.99951C20.2012 3.81648 19.2414 2.85665 18.0583 2.85665Z" />
</svg>
