<svg width="82" height="90" viewBox="0 0 82 90" fill="none" xmlns="http://www.w3.org/2000/svg">
<ellipse cx="44.5" cy="43" rx="32.5" ry="34" fill="#F15352"/>
<g filter="url(#filter0_f_42_1996)">
<path d="M71.0999 45.0401C71.0999 60.5459 59.1066 72.9601 44.4999 72.9601C29.8932 72.9601 17.8999 60.5459 17.8999 45.0401C17.8999 29.5343 29.8932 17.1201 44.4999 17.1201C59.1066 17.1201 71.0999 29.5343 71.0999 45.0401Z" stroke="url(#paint0_linear_42_1996)" stroke-width="4"/>
</g>
<path d="M32.1638 61.0411C31.7745 61.0411 31.3365 60.8221 30.8498 60.3841C30.3632 59.8974 29.9008 59.3377 29.4628 58.7051C29.0735 58.0724 28.7328 57.4397 28.4408 56.8071C28.1975 56.1257 28.0758 55.5661 28.0758 55.1281C28.0758 54.3007 28.2948 53.4977 28.7328 52.7191C29.2195 51.9404 29.8765 51.1374 30.7038 50.3101C31.2392 49.7747 32.0422 49.0447 33.1128 48.1201C34.2322 47.1467 35.7895 45.8571 37.7848 44.2511L31.3608 34.2501C31.2148 34.0067 31.0445 33.7147 30.8498 33.3741C30.7038 33.0334 30.6308 32.7657 30.6308 32.5711C30.6308 32.4251 30.8012 32.1331 31.1418 31.6951C31.5312 31.2084 32.0178 30.7461 32.6018 30.3081C33.1858 29.8214 33.8185 29.3834 34.4998 28.9941C35.2298 28.6047 35.9598 28.4101 36.6898 28.4101C37.2252 28.4101 37.8335 28.5317 38.5148 28.7751C39.2448 28.9697 39.8775 29.4807 40.4128 30.3081C41.3375 31.7681 42.1892 33.1064 42.9678 34.3231C43.7952 35.5397 44.5738 36.7321 45.3038 37.9001L55.0858 29.5051C55.5238 29.1157 55.8402 28.8481 56.0348 28.7021C56.2782 28.5074 56.4972 28.4101 56.6918 28.4101C57.0325 28.4101 57.4462 28.6777 57.9328 29.2131C58.4195 29.6997 58.8575 30.2837 59.2468 30.9651C59.6848 31.6464 60.0498 32.3277 60.3418 33.0091C60.6338 33.6904 60.7798 34.2257 60.7798 34.6151C60.7798 35.4424 60.5365 36.2211 60.0498 36.9511C59.6118 37.6811 59.0278 38.4111 58.2978 39.1411C57.7625 39.6764 56.8622 40.4794 55.5968 41.5501C54.3802 42.6207 52.6768 44.0564 50.4868 45.8571C51.7522 47.8524 52.7985 49.5071 53.6258 50.8211C54.5018 52.1351 55.1832 53.2057 55.6698 54.0331C56.2052 54.8604 56.5702 55.4931 56.7648 55.9311C56.9595 56.3204 57.0568 56.5881 57.0568 56.7341C57.0568 57.1721 56.8135 57.6587 56.3268 58.1941C55.8888 58.6807 55.3535 59.1431 54.7208 59.5811C54.0882 59.9704 53.4068 60.3111 52.6768 60.6031C51.9955 60.8951 51.4358 61.0411 50.9978 61.0411C50.4625 61.0411 49.8055 60.9194 49.0268 60.6761C48.2968 60.3841 47.6642 59.8001 47.1288 58.9241L42.8948 52.2811C41.4835 53.4977 39.9748 54.7874 38.3688 56.1501C36.7628 57.5127 35.0352 58.9727 33.1858 60.5301C32.7965 60.8707 32.4558 61.0411 32.1638 61.0411Z" fill="white"/>
<defs>
<filter id="filter0_f_42_1996" x="0.899902" y="0.120117" width="87.2002" height="89.8398" filterUnits="userSpaceOnUse" color-interpolation-filters="sRGB">
<feFlood flood-opacity="0" result="BackgroundImageFix"/>
<feBlend mode="normal" in="SourceGraphic" in2="BackgroundImageFix" result="shape"/>
<feGaussianBlur stdDeviation="7.5" result="effect1_foregroundBlur_42_1996"/>
</filter>
<linearGradient id="paint0_linear_42_1996" x1="44.8619" y1="80.6411" x2="56.7064" y2="23.2767" gradientUnits="userSpaceOnUse">
<stop/>
<stop offset="1" stop-color="white"/>
</linearGradient>
</defs>
</svg>
