<svg width="20" height="20" viewBox="0 0 20 20" fill="#FCAC1D" xmlns="http://www.w3.org/2000/svg">
<path d="M16.7279 3.50047C14.9679 1.57859 12.4381 0.373291 9.62671 0.373291C4.31002 0.373291 0 4.68331 0 10H1.80501C1.80501 5.6802 5.30691 2.1783 9.62671 2.1783C11.9398 2.1783 14.0178 3.18267 15.4497 4.77875L12.6351 7.59333H19.2534V0.974961L16.7279 3.50047ZM17.4484 10C17.4484 14.3198 13.9465 17.8217 9.62671 17.8217C7.31367 17.8217 5.23562 16.8173 3.80379 15.2213L6.61837 12.4067H4.76837e-07V19.025L2.52551 16.4995C4.28554 18.4214 6.8153 19.6267 9.62671 19.6267C14.9434 19.6267 19.2534 15.3167 19.2534 10H17.4484Z" />
</svg>
