<svg width="23" height="15" viewBox="0 0 23 15" fill="white" xmlns="http://www.w3.org/2000/svg">
<path d="M22.7781 6.92969C20.6597 2.79648 16.466 0 11.664 0C6.86209 0 2.66717 2.79844 0.549979 6.93008C0.368757 7.28856 0.368757 7.71184 0.549979 8.07031C2.66834 12.2035 6.86209 15 11.664 15C16.466 15 20.6609 12.2016 22.7781 8.06992C22.9593 7.71145 22.9593 7.28817 22.7781 6.92969ZM11.664 13.125C8.55744 13.125 6.03904 10.6066 6.03904 7.5C6.03904 4.3934 8.55744 1.875 11.664 1.875C14.7706 1.875 17.289 4.3934 17.289 7.5C17.2906 10.6072 14.7713 13.1265 11.664 13.125ZM11.664 3.75C11.3293 3.75468 10.9968 3.80447 10.6754 3.89805C11.2228 4.64204 11.1447 5.67437 10.4916 6.32754C9.83842 6.9807 8.80608 7.0588 8.06209 6.51133C7.64171 8.06006 8.25583 9.7044 9.5885 10.5984C10.9212 11.4924 12.6756 11.437 13.9491 10.4607C15.2227 9.48431 15.7318 7.8045 15.2145 6.28538C14.6973 4.76627 13.2688 3.74622 11.664 3.75Z"/>
</svg>
